<mxfile host="app.diagrams.net" modified="2022-06-20T05:25:09.443Z" agent="5.0 (Windows NT 10.0; Win64; x64) AppleWebKit/537.36 (KHTML, like Gecko) Chrome/102.0.0.0 Safari/537.36" etag="0Teq-cueptRlZhdtCCV5" version="20.0.1" type="github">
  <diagram id="S9UyM0tFQbpVBHd5YzN-" name="Page-1">
    <mxGraphModel dx="1422" dy="794" grid="1" gridSize="10" guides="1" tooltips="1" connect="1" arrows="1" fold="1" page="1" pageScale="1" pageWidth="2336" pageHeight="1654" background="none" math="0" shadow="0">
      <root>
        <mxCell id="0" />
        <mxCell id="1" parent="0" />
        <mxCell id="o099btuPSf6t2Z-e04EJ-1" value="AWS Edge Services" style="points=[[0,0],[0.25,0],[0.5,0],[0.75,0],[1,0],[1,0.25],[1,0.5],[1,0.75],[1,1],[0.75,1],[0.5,1],[0.25,1],[0,1],[0,0.75],[0,0.5],[0,0.25]];outlineConnect=0;gradientColor=none;html=1;whiteSpace=wrap;fontSize=12;fontStyle=0;container=1;pointerEvents=0;collapsible=0;recursiveResize=0;shape=mxgraph.aws4.group;grIcon=mxgraph.aws4.group_aws_cloud_alt;strokeColor=#232F3E;fillColor=none;verticalAlign=top;align=left;spacingLeft=30;fontColor=#232F3E;dashed=0;" parent="1" vertex="1">
          <mxGeometry x="330" y="280" width="340" height="270" as="geometry" />
        </mxCell>
        <mxCell id="o099btuPSf6t2Z-e04EJ-17" value="" style="group" parent="o099btuPSf6t2Z-e04EJ-1" vertex="1" connectable="0">
          <mxGeometry y="250" width="200" height="20" as="geometry" />
        </mxCell>
        <mxCell id="o099btuPSf6t2Z-e04EJ-2" value="" style="sketch=0;points=[[0,0,0],[0.25,0,0],[0.5,0,0],[0.75,0,0],[1,0,0],[0,1,0],[0.25,1,0],[0.5,1,0],[0.75,1,0],[1,1,0],[0,0.25,0],[0,0.5,0],[0,0.75,0],[1,0.25,0],[1,0.5,0],[1,0.75,0]];outlineConnect=0;fontColor=#232F3E;gradientColor=#F54749;gradientDirection=north;fillColor=#C7131F;strokeColor=#ffffff;dashed=0;verticalLabelPosition=bottom;verticalAlign=top;align=center;html=1;fontSize=12;fontStyle=0;aspect=fixed;shape=mxgraph.aws4.resourceIcon;resIcon=mxgraph.aws4.shield;" parent="o099btuPSf6t2Z-e04EJ-17" vertex="1">
          <mxGeometry width="20" height="20" as="geometry" />
        </mxCell>
        <mxCell id="o099btuPSf6t2Z-e04EJ-3" value="Protected with AWS Shield" style="text;html=1;strokeColor=none;fillColor=none;align=center;verticalAlign=middle;whiteSpace=wrap;rounded=0;" parent="o099btuPSf6t2Z-e04EJ-17" vertex="1">
          <mxGeometry x="20" width="180" height="20" as="geometry" />
        </mxCell>
        <mxCell id="o099btuPSf6t2Z-e04EJ-18" value="" style="group" parent="1" vertex="1" connectable="0">
          <mxGeometry x="160" y="390" width="230" height="40" as="geometry" />
        </mxCell>
        <mxCell id="o099btuPSf6t2Z-e04EJ-4" value="" style="ellipse;shape=cloud;whiteSpace=wrap;html=1;" parent="o099btuPSf6t2Z-e04EJ-18" vertex="1">
          <mxGeometry x="60" width="70" height="40" as="geometry" />
        </mxCell>
        <mxCell id="o099btuPSf6t2Z-e04EJ-6" value="" style="edgeStyle=orthogonalEdgeStyle;html=1;endArrow=block;elbow=vertical;startArrow=none;endFill=1;strokeColor=#545B64;rounded=0;" parent="o099btuPSf6t2Z-e04EJ-18" edge="1">
          <mxGeometry width="100" relative="1" as="geometry">
            <mxPoint x="130" y="19.5" as="sourcePoint" />
            <mxPoint x="230" y="19.5" as="targetPoint" />
          </mxGeometry>
        </mxCell>
        <mxCell id="o099btuPSf6t2Z-e04EJ-7" value="" style="edgeStyle=orthogonalEdgeStyle;html=1;endArrow=block;elbow=vertical;startArrow=none;endFill=1;strokeColor=#545B64;rounded=0;" parent="o099btuPSf6t2Z-e04EJ-18" edge="1">
          <mxGeometry width="100" relative="1" as="geometry">
            <mxPoint x="-50" y="19.5" as="sourcePoint" />
            <mxPoint x="50" y="19.5" as="targetPoint" />
            <Array as="points">
              <mxPoint y="19.5" />
              <mxPoint y="19.5" />
            </Array>
          </mxGeometry>
        </mxCell>
        <mxCell id="e1Rylb-uFzCbyF6p7n8r-2" value="AWS Cloud" style="points=[[0,0],[0.25,0],[0.5,0],[0.75,0],[1,0],[1,0.25],[1,0.5],[1,0.75],[1,1],[0.75,1],[0.5,1],[0.25,1],[0,1],[0,0.75],[0,0.5],[0,0.25]];outlineConnect=0;gradientColor=none;html=1;whiteSpace=wrap;fontSize=12;fontStyle=0;container=1;pointerEvents=0;collapsible=0;recursiveResize=0;shape=mxgraph.aws4.group;grIcon=mxgraph.aws4.group_aws_cloud_alt;strokeColor=#232F3E;fillColor=none;verticalAlign=top;align=left;spacingLeft=30;fontColor=#232F3E;dashed=1;" vertex="1" parent="1">
          <mxGeometry x="300" y="200" width="1090" height="560" as="geometry" />
        </mxCell>
        <mxCell id="e1Rylb-uFzCbyF6p7n8r-6" value="API Gateway" style="sketch=0;points=[[0,0,0],[0.25,0,0],[0.5,0,0],[0.75,0,0],[1,0,0],[0,1,0],[0.25,1,0],[0.5,1,0],[0.75,1,0],[1,1,0],[0,0.25,0],[0,0.5,0],[0,0.75,0],[1,0.25,0],[1,0.5,0],[1,0.75,0]];outlineConnect=0;fontColor=#232F3E;gradientColor=#FF4F8B;gradientDirection=north;fillColor=#BC1356;strokeColor=#ffffff;dashed=0;verticalLabelPosition=bottom;verticalAlign=top;align=center;html=1;fontSize=12;fontStyle=0;aspect=fixed;shape=mxgraph.aws4.resourceIcon;resIcon=mxgraph.aws4.api_gateway;" vertex="1" parent="e1Rylb-uFzCbyF6p7n8r-2">
          <mxGeometry x="440" y="265" width="45" height="45" as="geometry" />
        </mxCell>
        <mxCell id="o099btuPSf6t2Z-e04EJ-12" value="Route 53" style="sketch=0;points=[[0,0,0],[0.25,0,0],[0.5,0,0],[0.75,0,0],[1,0,0],[0,1,0],[0.25,1,0],[0.5,1,0],[0.75,1,0],[1,1,0],[0,0.25,0],[0,0.5,0],[0,0.75,0],[1,0.25,0],[1,0.5,0],[1,0.75,0]];outlineConnect=0;fontColor=#232F3E;gradientColor=#945DF2;gradientDirection=north;fillColor=#5A30B5;strokeColor=#ffffff;dashed=0;verticalLabelPosition=bottom;verticalAlign=top;align=center;html=1;fontSize=12;fontStyle=0;aspect=fixed;shape=mxgraph.aws4.resourceIcon;resIcon=mxgraph.aws4.route_53;" parent="e1Rylb-uFzCbyF6p7n8r-2" vertex="1">
          <mxGeometry x="90" y="192" width="38" height="38" as="geometry" />
        </mxCell>
        <mxCell id="o099btuPSf6t2Z-e04EJ-10" value="WAF" style="sketch=0;points=[[0,0,0],[0.25,0,0],[0.5,0,0],[0.75,0,0],[1,0,0],[0,1,0],[0.25,1,0],[0.5,1,0],[0.75,1,0],[1,1,0],[0,0.25,0],[0,0.5,0],[0,0.75,0],[1,0.25,0],[1,0.5,0],[1,0.75,0]];outlineConnect=0;fontColor=#232F3E;gradientColor=#F54749;gradientDirection=north;fillColor=#C7131F;strokeColor=#ffffff;dashed=0;verticalLabelPosition=bottom;verticalAlign=top;align=center;html=1;fontSize=12;fontStyle=0;aspect=fixed;shape=mxgraph.aws4.resourceIcon;resIcon=mxgraph.aws4.waf;" parent="e1Rylb-uFzCbyF6p7n8r-2" vertex="1">
          <mxGeometry x="140" y="112" width="40" height="40" as="geometry" />
        </mxCell>
        <mxCell id="o099btuPSf6t2Z-e04EJ-13" value="CloudFront" style="sketch=0;points=[[0,0,0],[0.25,0,0],[0.5,0,0],[0.75,0,0],[1,0,0],[0,1,0],[0.25,1,0],[0.5,1,0],[0.75,1,0],[1,1,0],[0,0.25,0],[0,0.5,0],[0,0.75,0],[1,0.25,0],[1,0.5,0],[1,0.75,0]];outlineConnect=0;fontColor=#232F3E;gradientColor=#945DF2;gradientDirection=north;fillColor=#5A30B5;strokeColor=#ffffff;dashed=0;verticalLabelPosition=bottom;verticalAlign=top;align=center;html=1;fontSize=12;fontStyle=0;aspect=fixed;shape=mxgraph.aws4.resourceIcon;resIcon=mxgraph.aws4.cloudfront;" parent="e1Rylb-uFzCbyF6p7n8r-2" vertex="1">
          <mxGeometry x="320" y="112" width="38" height="38" as="geometry" />
        </mxCell>
        <mxCell id="o099btuPSf6t2Z-e04EJ-14" value="" style="edgeStyle=orthogonalEdgeStyle;html=1;endArrow=block;elbow=vertical;startArrow=none;endFill=1;strokeColor=#545B64;rounded=0;entryX=0;entryY=0.5;entryDx=0;entryDy=0;entryPerimeter=0;" parent="e1Rylb-uFzCbyF6p7n8r-2" source="o099btuPSf6t2Z-e04EJ-12" target="o099btuPSf6t2Z-e04EJ-13" edge="1">
          <mxGeometry width="100" relative="1" as="geometry">
            <mxPoint x="140" y="210.5" as="sourcePoint" />
            <mxPoint x="240" y="210.5" as="targetPoint" />
            <Array as="points">
              <mxPoint x="224" y="211" />
              <mxPoint x="224" y="131" />
            </Array>
          </mxGeometry>
        </mxCell>
        <mxCell id="o099btuPSf6t2Z-e04EJ-15" value="" style="edgeStyle=orthogonalEdgeStyle;html=1;endArrow=open;elbow=vertical;startArrow=open;startFill=0;endFill=0;strokeColor=#545B64;rounded=0;" parent="e1Rylb-uFzCbyF6p7n8r-2" edge="1">
          <mxGeometry width="100" relative="1" as="geometry">
            <mxPoint x="180" y="131.5" as="sourcePoint" />
            <mxPoint x="220" y="131.5" as="targetPoint" />
          </mxGeometry>
        </mxCell>
        <mxCell id="e1Rylb-uFzCbyF6p7n8r-7" value="" style="edgeStyle=orthogonalEdgeStyle;html=1;endArrow=block;elbow=vertical;startArrow=none;endFill=1;strokeColor=#545B64;rounded=0;entryX=0;entryY=0.5;entryDx=0;entryDy=0;entryPerimeter=0;" edge="1" parent="e1Rylb-uFzCbyF6p7n8r-2" target="e1Rylb-uFzCbyF6p7n8r-6">
          <mxGeometry width="100" relative="1" as="geometry">
            <mxPoint x="130" y="210" as="sourcePoint" />
            <mxPoint x="230" y="210" as="targetPoint" />
            <Array as="points">
              <mxPoint x="285" y="210" />
              <mxPoint x="285" y="287" />
            </Array>
          </mxGeometry>
        </mxCell>
        <mxCell id="e1Rylb-uFzCbyF6p7n8r-5" value="" style="group" vertex="1" connectable="0" parent="1">
          <mxGeometry x="50" y="350" width="45" height="115" as="geometry" />
        </mxCell>
        <mxCell id="e1Rylb-uFzCbyF6p7n8r-3" value="" style="aspect=fixed;perimeter=ellipsePerimeter;html=1;align=center;shadow=0;dashed=0;spacingTop=3;image;image=img/lib/active_directory/laptop_client.svg;" vertex="1" parent="e1Rylb-uFzCbyF6p7n8r-5">
          <mxGeometry width="45" height="50" as="geometry" />
        </mxCell>
        <mxCell id="e1Rylb-uFzCbyF6p7n8r-4" value="" style="verticalLabelPosition=bottom;html=1;verticalAlign=top;align=center;strokeColor=none;fillColor=#00BEF2;shape=mxgraph.azure.mobile;pointerEvents=1;" vertex="1" parent="e1Rylb-uFzCbyF6p7n8r-5">
          <mxGeometry x="10" y="65" width="35" height="50" as="geometry" />
        </mxCell>
      </root>
    </mxGraphModel>
  </diagram>
</mxfile>
